<?xml version="1.0" encoding="UTF-8"?>
<svg id="Calque_2" data-name="Calque 2" xmlns="http://www.w3.org/2000/svg" viewBox="0 0 334.9 86.17">
  <defs>
    <style>
      .cls-1 {
        fill: none;
      }

      .cls-2, .cls-3 {
        fill: #fff;
      }

      .cls-4 {
        fill: #7ddbc3;
      }

      .cls-3 {
        font-family: Poppins-Light, Poppins;
        font-size: 55px;
        isolation: isolate;
        letter-spacing: .07em;
      }
    </style>
  </defs>
  <g id="Calque_1-2" data-name="Calque 1">
    <rect class="cls-1" width="268" height="69.6"/>
    <text class="cls-3" transform="translate(.21 55.15)"><tspan x="0" y="0">ESTUAIRE</tspan></text>
    <path class="cls-4" d="M287.1,17.7c1.7-5.2,5.5-8.1,10.4-9.6,3.7-1.1,7.4-1.9,11.4-1.5,7.4,.7,13.4,3.5,18.7,9,6.9,7.1,8.2,15.5,6.8,24.4-.9,5.7-4.2,10.8-8.8,14.9-6.1,5.4-13.2,7.2-21.1,6.8-6.6-.4-11.7-3.7-16.7-7.6-.7-.5-.9-1.3-.5-1.9,.6-.9,1.3-.2,1.8,.3,1.7,1.4,3.5,2.8,5.5,4,9.5,5.3,20.4,4.3,28.9-2.8,6.2-5.2,10-11.8,9.8-20.2-.2-10.3-9.5-22.8-20.8-24.5-8.8-1.3-16.6,.5-23.2,6.7-.7,.6-.5,2.1-2.2,2Z"/>
    <path class="cls-2" d="M286.3,21c1.2,10.1,8.8,15.8,19,14.4,2-.3,2.6-1,1.4-2.8-.3-.5-.8-1.2-.1-1.7,.7-.5,1.5,0,1.8,.6,1.1,2.1,2.7,2.9,5,2.7,.7-.1,1.8,.2,1.9,1.2s-.9,1.5-1.6,1.6c-2.5,.3-4.1,1.7-5.3,3.9-.4,.7-.8,1.4-1.7,1-1-.4-.6-1.3-.2-1.8,1.4-2.2-.1-2.3-1.7-2.4-5-.2-9.7-1.4-13.9-4.1-4-2.6-5.9-6.2-5.8-11,.1-.7,.2-1.3,1.2-1.6h0Z"/>
  </g>
</svg>